PathFileType	4	(X/Y/Z)	/Users/itak/Documents/Research/Walk-IL/dataset/trc/00239_00009.trc
DataRate	CameraRate	NumFrames	NumMarkers	Units	OrigDataRate	OrigDataStartFrame	OrigNumFrames
100.000000	100.000000	4	53	mm	100.000000	633	844
Frame#	Time	RPSI			LPSI			L3			STRN			T10			C7			CLAV			RBAK			LBAK			LSHO			LUPA			LAEL			LAOL			LWTS			LWPS			LFRA			LIFD			LHPS			LHTS			RSHO			RUPA			RAEL			RAOL			RWTS			RWPS			RFRA			RIFD			RHTS			RHPS			RBHD			LFHD			RFHD			LBHD			LHIP			RHIP			RASI			LASI			LKNE			LTHI			LANK			LTIP			LTOE			LMT1			LMT5			LHEE			RKNE			RTHI			RANK			RTIP			RTOE			RMT1			RMT5			RHEE			
		X1	Y1	Z1	X2	Y2	Z2	X3	Y3	Z3	X4	Y4	Z4	X5	Y5	Z5	X6	Y6	Z6	X7	Y7	Z7	X8	Y8	Z8	X9	Y9	Z9	X10	Y10	Z10	X11	Y11	Z11	X12	Y12	Z12	X13	Y13	Z13	X14	Y14	Z14	X15	Y15	Z15	X16	Y16	Z16	X17	Y17	Z17	X18	Y18	Z18	X19	Y19	Z19	X20	Y20	Z20	X21	Y21	Z21	X22	Y22	Z22	X23	Y23	Z23	X24	Y24	Z24	X25	Y25	Z25	X26	Y26	Z26	X27	Y27	Z27	X28	Y28	Z28	X29	Y29	Z29	X30	Y30	Z30	X31	Y31	Z31	X32	Y32	Z32	X33	Y33	Z33	X34	Y34	Z34	X35	Y35	Z35	X36	Y36	Z36	X37	Y37	Z37	X38	Y38	Z38	X39	Y39	Z39	X40	Y40	Z40	X41	Y41	Z41	X42	Y42	Z42	X43	Y43	Z43	X44	Y44	Z44	X45	Y45	Z45	X46	Y46	Z46	X47	Y47	Z47	X48	Y48	Z48	X49	Y49	Z49	X50	Y50	Z50	X51	Y51	Z51	X52	Y52	Z52	X53	Y53	Z53	

634	6.33	760.2338256835938	1027.874755859375	145.4163360595703	869.4071044921875	1039.76708984375	195.2122192382812	831.2520141601562	1121.909912109375	173.735595703125	736.3692016601562	1297.123901367188	407.0300903320312	829.3489379882812	1248.134521484375	171.4284057617188	811.421142578125	1507.740844726562	239.7550354003906	746.5199584960938	1415.467529296875	387.070068359375	771.1285400390625	1374.29638671875	134.4124145507812	920.5496215820312	1466.069213867188	262.1045227050781	937.3433227539062	1462.708251953125	365.7913818359375	1024.9052734375	1347.455932617188	366.7388305664062	1058.544677734375	1140.209838867188	389.2937316894531	1036.740966796875	1119.38818359375	307.1106567382812	982.8820190429688	912.4630126953125	478.3729553222656	1065.312622070312	896.0726928710938	475.6250915527344	1068.173583984375	1035.149291992188	421.1846618652344	990.6729125976562	719.753662109375	502.7778625488281	1057.16455078125	809.7645874023438	500.0486755371094	993.5341186523438	816.3634033203125	525.1490478515625	632.072265625	1468.96044921875	227.2483978271484	576.9110717773438	1407.135864257812	179.8319244384766	545.62060546875	1129.025268554688	130.5656127929688	640.9603881835938	1120.954345703125	131.8377838134766	530.7134399414062	921.0733032226562	280.7523803710938	491.0317077636719	903.6190795898438	207.6978302001953	522.8980712890625	1060.803344726562	150.8333435058594	523.1071166992188	727.2855834960938	305.1956176757812	498.272216796875	801.9312744140625	315.8207397460938	472.013916015625	799.2086181640625	247.7164611816406	750.901611328125	1671.489990234375	280.0262451171875	725.486328125	1675.2099609375	505.5108642578125	639.4208374023438	1673.640380859375	452.8097534179688	840.3677368164062	1671.032348632812	387.6354064941406	954.702392578125	985.1607666015625	348.6790771484375	623.1923828125	986.4916381835938	190.7436370849609	616.1074829101562	1035.266967773438	293.7525024414062	867.4482421875	1023.231506347656	417.7434387207031	868.389892578125	512.274169921875	445.3875122070312	907.4716186523438	651.5557861328125	424.6427307128906	881.1746215820312	24.0386791229248	393.7823791503906	885.5774536132812	280.0494079589844	420.8591003417969	720.4019775390625	43.23394012451172	545.4498901367188	719.3718872070312	41.12109375	466.0472412109375	826.0791625976562	26.88240814208984	511.0545654296875	868.3250122070312	35.07574081420898	315.0967407226562	607.1002807617188	498.6025695800781	283.4566955566406	588.8327026367188	765.65625	258.4806518554688	769.4425659179688	172.2789154052734	-40.17177200317383	639.4179077148438	391.6703796386719	245.2199401855469	746.0428466796875	43.06581497192383	121.9793701171875	803.3582763671875	73.60506439208984	95.99623870849609	714.25341796875	97.22052764892578	21.49557495117188	839.8848876953125	214.0649871826172	-57.12405395507812	
635	6.34	760.5501708984375	1028.567504882812	150.57861328125	869.22314453125	1040.29150390625	201.3993530273438	831.440673828125	1122.747436523438	179.6950988769531	734.3307495117188	1297.62744140625	412.4232482910156	829.7564697265625	1249.007080078125	177.7244873046875	811.1792602539062	1508.4541015625	246.2895355224609	744.6329956054688	1415.998413085938	392.7275695800781	772.0025634765625	1375.216430664062	140.2711486816406	920.0956420898438	1466.821166992188	269.8421020507812	935.5904541015625	1463.345581054688	373.7270202636719	1023.116882324219	1348.16748046875	376.0452575683594	1056.405029296875	1141.017822265625	399.8706665039062	1035.697875976562	1119.779174804688	317.5375366210938	979.5700073242188	913.7153930664062	488.8590393066406	1062.054809570312	897.3825073242188	487.5839233398438	1065.606689453125	1036.132690429688	432.4269409179688	987.1783447265625	721.2202758789062	514.8792114257812	1053.648559570312	811.2332763671875	512.421875	989.6651000976562	817.958984375	536.705322265625	632.0009155273438	1469.828002929688	231.7245025634766	577.339599609375	1407.9970703125	183.7035522460938	546.5342407226562	1129.750122070312	134.5392456054688	641.930419921875	1121.759887695312	136.7281341552734	529.4312133789062	923.6362915039062	286.7896118164062	490.7207946777344	905.2705688476562	213.5656585693359	523.4290771484375	1061.715942382812	155.2056732177734	520.8562622070312	730.3563842773438	314.0792236328125	496.1016845703125	805.2297973632812	323.2548828125	470.8434753417969	801.5350952148438	254.8614654541016	750.0243530273438	1672.226196289062	286.3609924316406	722.3878173828125	1675.281494140625	511.532470703125	636.9009399414062	1673.805786132812	458.0639343261719	838.4652099609375	1671.480224609375	394.77099609375	953.3519897460938	985.633056640625	355.3971252441406	623.032958984375	987.4698486328125	194.7603149414062	615.2898559570312	1036.07763671875	297.7000732421875	865.569580078125	1023.798522949219	423.993408203125	867.7942504882812	511.8096313476562	448.0937805175781	906.3973999023438	651.5323486328125	428.8031616210938	881.1066284179688	24.11604690551758	393.7451477050781	885.3390502929688	279.8355102539062	422.1339111328125	720.2615966796875	42.84976196289062	545.567138671875	719.2638549804688	41.01719665527344	466.0712890625	826.0999145507812	26.88584327697754	511.0763244628906	868.3050537109375	35.18891143798828	315.0784912109375	603.1346435546875	500.3954162597656	292.4071960449219	587.0113525390625	767.3929443359375	263.9696044921875	768.9828491210938	170.5962371826172	-25.09609985351562	635.3738403320312	393.3367004394531	255.586181640625	737.3858642578125	44.41146087646484	138.7623138427734	796.398681640625	73.03885650634766	113.9720840454102	709.8397827148438	98.17214965820312	36.40699768066406	841.1148071289062	210.2263488769531	-41.02440643310547	
636	6.350000000000001	760.7648315429688	1029.288208007812	155.6784515380859	868.9361572265625	1040.766967773438	207.4897613525391	831.5385131835938	1123.552978515625	185.5639495849609	732.302734375	1298.12744140625	417.7558288574219	830.0933837890625	1249.843139648438	183.915771484375	810.867919921875	1509.149536132812	252.7084655761719	742.7349243164062	1416.52001953125	398.2853088378906	772.7948608398438	1376.10498046875	146.0514373779297	919.5598754882812	1467.557006835938	277.4391174316406	933.7840576171875	1463.99462890625	381.5017395019531	1021.258422851562	1348.893432617188	385.1797790527344	1054.138671875	1141.838134765625	410.2879333496094	1034.510864257812	1120.183227539062	327.8219604492188	976.12109375	914.9552001953125	499.1117858886719	1058.656127929688	898.716064453125	499.3718872070312	1062.905395507812	1037.133056640625	443.5090637207031	983.5614013671875	722.6765747070312	526.7001342773438	1050.011596679688	812.7180786132812	524.5792236328125	985.6831665039062	819.5348510742188	548.042724609375	631.8739624023438	1470.663696289062	236.1416320800781	577.7158203125	1408.834594726562	187.5243530273438	547.4735717773438	1130.4658203125	138.3636779785156	642.9453735351562	1122.610229492188	141.4513854980469	528.1425170898438	926.2208862304688	292.6654357910156	490.41748046875	906.9324340820312	219.2828674316406	523.9617919921875	1062.6044921875	159.4598083496094	518.5552368164062	733.502197265625	322.7971496582031	493.8971862792969	808.5746459960938	330.5144653320312	469.6629638671875	803.8948364257812	261.8495788574219	749.0628051757812	1672.961303710938	292.6254272460938	719.2057495117188	1675.271362304688	517.4619750976562	634.2996826171875	1673.88427734375	463.2225341796875	836.46337890625	1671.916748046875	401.8304443359375	951.9676513671875	986.0534057617188	361.9663391113281	622.7755126953125	988.4816284179688	198.7764282226562	614.46484375	1036.908569335938	301.6566467285156	863.7230224609375	1024.338989257812	430.1365661621094	867.2533569335938	511.3444519042969	450.6900939941406	905.3496704101562	651.4786376953125	432.8155212402344	881.0300903320312	24.19570350646973	393.7026672363281	885.1163330078125	279.64013671875	423.3257751464844	720.1258544921875	42.50117874145508	545.6848754882812	719.1785278320312	40.92546081542969	466.1023559570312	826.1235961914062	26.89009094238281	511.0990905761719	868.2698364257812	35.30020141601562	315.0535888671875	599.2774047851562	502.1810913085938	301.1536560058594	585.1323852539062	769.1213989257812	269.3879089355469	767.9104614257812	167.5926666259766	-9.323887825012207	631.360595703125	394.7950744628906	265.9276733398438	729.3223266601562	45.57816314697266	156.5581817626953	789.7431640625	72.2100830078125	132.6277923583984	705.4673461914062	98.02732849121094	52.46332550048828	841.4096069335938	205.2023162841797	-24.63243103027344	
637	6.36	760.8790893554688	1030.008911132812	160.7151947021484	868.5526733398438	1041.205932617188	213.486328125	831.542236328125	1124.319458007812	191.3560791015625	730.28076171875	1298.616577148438	423.0404663085938	830.3530883789062	1250.629638671875	190.0083618164062	810.485107421875	1509.817993164062	259.0165405273438	740.824462890625	1417.027221679688	403.7554321289062	773.5049438476562	1376.949829101562	151.7593841552734	918.9420166015625	1468.263916015625	284.8998413085938	931.9266357421875	1464.643432617188	389.1190490722656	1019.337036132812	1349.622192382812	394.1358337402344	1051.767944335938	1142.6591796875	420.5252380371094	1033.1953125	1120.591674804688	337.9441528320312	972.5455932617188	916.1878662109375	509.1518249511719	1055.121948242188	900.0596923828125	510.9704895019531	1060.087036132812	1038.137451171875	454.4093933105469	979.7920532226562	724.1248168945312	538.2608032226562	1046.2431640625	814.2089233398438	536.5155029296875	981.5873413085938	821.0993041992188	559.1643676757812	631.6889038085938	1471.454467773438	240.5035095214844	578.037353515625	1409.635986328125	191.2987518310547	548.4081420898438	1131.16259765625	142.046630859375	643.9625854492188	1123.474243164062	146.0161590576172	526.8563232421875	928.8049926757812	298.3708801269531	490.1167907714844	908.5841064453125	224.8449554443359	524.4807739257812	1063.460083007812	163.5936126708984	516.2351684570312	736.697021484375	331.3268127441406	491.6854553222656	811.9370727539062	337.5842590332031	468.4798583984375	806.2640380859375	268.6714172363281	748.0221557617188	1673.681884765625	298.8085632324219	715.9542846679688	1675.193237304688	523.29150390625	631.626953125	1673.888305664062	468.27978515625	834.3705444335938	1672.337158203125	408.7997741699219	950.5458374023438	986.4271240234375	368.4045104980469	622.4298095703125	989.4994506835938	202.79052734375	613.6192016601562	1037.736450195312	305.619384765625	861.8964233398438	1024.840454101562	436.1786499023438	866.770751953125	510.8812255859375	453.178955078125	904.330078125	651.4027709960938	436.6970825195312	880.9473266601562	24.2735538482666	393.6587219238281	884.9142456054688	279.4636840820312	424.4377746582031	719.9945068359375	42.18922805786133	545.8018798828125	719.11474609375	40.84596252441406	466.1397094726562	826.1500244140625	26.89455223083496	511.1229553222656	868.2222290039062	35.40687561035156	315.023193359375	595.511962890625	503.9297790527344	309.7087707519531	583.190185546875	770.8145751953125	274.7165222167969	766.2171630859375	163.3908843994141	7.082291603088379	627.3592529296875	396.0273742675781	276.2381286621094	721.70458984375	46.53840637207031	175.267333984375	783.29150390625	71.13780975341797	151.9195404052734	701.0556640625	96.87152099609375	69.52713012695312	840.8082275390625	199.1030883789062	-7.945601463317871	
